<mxfile host="app.diagrams.net" agent="Mozilla/5.0 (Macintosh; Intel Mac OS X 10_15_7) AppleWebKit/605.1.15 (KHTML, like Gecko) Version/18.0 Safari/605.1.15" version="24.7.17">
  <diagram name="Page-1" id="WzYiXAockqKhET3a69w2">
    <mxGraphModel dx="2021" dy="797" grid="1" gridSize="10" guides="1" tooltips="1" connect="1" arrows="1" fold="1" page="1" pageScale="1" pageWidth="827" pageHeight="1169" math="0" shadow="0">
      <root>
        <mxCell id="0" />
        <mxCell id="1" parent="0" />
        <mxCell id="MZUq7S5t8qdFrX7I3EnC-7" style="edgeStyle=orthogonalEdgeStyle;rounded=0;orthogonalLoop=1;jettySize=auto;html=1;entryX=0;entryY=0.5;entryDx=0;entryDy=0;" edge="1" parent="1" source="MZUq7S5t8qdFrX7I3EnC-1" target="MZUq7S5t8qdFrX7I3EnC-2">
          <mxGeometry relative="1" as="geometry" />
        </mxCell>
        <mxCell id="MZUq7S5t8qdFrX7I3EnC-1" value="Users" style="rounded=1;whiteSpace=wrap;html=1;" vertex="1" parent="1">
          <mxGeometry x="-20" y="280" width="120" height="60" as="geometry" />
        </mxCell>
        <mxCell id="MZUq7S5t8qdFrX7I3EnC-8" style="edgeStyle=orthogonalEdgeStyle;rounded=0;orthogonalLoop=1;jettySize=auto;html=1;entryX=0;entryY=0.5;entryDx=0;entryDy=0;" edge="1" parent="1" source="MZUq7S5t8qdFrX7I3EnC-2" target="MZUq7S5t8qdFrX7I3EnC-3">
          <mxGeometry relative="1" as="geometry" />
        </mxCell>
        <mxCell id="MZUq7S5t8qdFrX7I3EnC-2" value="Load Balancer" style="rounded=1;whiteSpace=wrap;html=1;" vertex="1" parent="1">
          <mxGeometry x="220" y="280" width="120" height="60" as="geometry" />
        </mxCell>
        <mxCell id="MZUq7S5t8qdFrX7I3EnC-9" style="edgeStyle=orthogonalEdgeStyle;rounded=0;orthogonalLoop=1;jettySize=auto;html=1;entryX=0;entryY=0.5;entryDx=0;entryDy=0;" edge="1" parent="1" source="MZUq7S5t8qdFrX7I3EnC-3" target="MZUq7S5t8qdFrX7I3EnC-4">
          <mxGeometry relative="1" as="geometry" />
        </mxCell>
        <mxCell id="MZUq7S5t8qdFrX7I3EnC-11" style="edgeStyle=orthogonalEdgeStyle;rounded=0;orthogonalLoop=1;jettySize=auto;html=1;entryX=0.5;entryY=0;entryDx=0;entryDy=0;" edge="1" parent="1" source="MZUq7S5t8qdFrX7I3EnC-3" target="MZUq7S5t8qdFrX7I3EnC-10">
          <mxGeometry relative="1" as="geometry" />
        </mxCell>
        <mxCell id="MZUq7S5t8qdFrX7I3EnC-3" value="Algorithms" style="rounded=1;whiteSpace=wrap;html=1;" vertex="1" parent="1">
          <mxGeometry x="390" y="280" width="120" height="60" as="geometry" />
        </mxCell>
        <mxCell id="MZUq7S5t8qdFrX7I3EnC-6" style="edgeStyle=orthogonalEdgeStyle;rounded=0;orthogonalLoop=1;jettySize=auto;html=1;entryX=0.5;entryY=0;entryDx=0;entryDy=0;" edge="1" parent="1" source="MZUq7S5t8qdFrX7I3EnC-4" target="MZUq7S5t8qdFrX7I3EnC-1">
          <mxGeometry relative="1" as="geometry">
            <Array as="points">
              <mxPoint x="620" y="260" />
              <mxPoint x="40" y="260" />
            </Array>
          </mxGeometry>
        </mxCell>
        <mxCell id="MZUq7S5t8qdFrX7I3EnC-4" value="Servers / VMs" style="rounded=1;whiteSpace=wrap;html=1;" vertex="1" parent="1">
          <mxGeometry x="560" y="280" width="120" height="60" as="geometry" />
        </mxCell>
        <mxCell id="MZUq7S5t8qdFrX7I3EnC-20" style="edgeStyle=orthogonalEdgeStyle;rounded=0;orthogonalLoop=1;jettySize=auto;html=1;entryX=0.5;entryY=0;entryDx=0;entryDy=0;" edge="1" parent="1" source="MZUq7S5t8qdFrX7I3EnC-10" target="MZUq7S5t8qdFrX7I3EnC-12">
          <mxGeometry relative="1" as="geometry" />
        </mxCell>
        <mxCell id="MZUq7S5t8qdFrX7I3EnC-21" style="edgeStyle=orthogonalEdgeStyle;rounded=0;orthogonalLoop=1;jettySize=auto;html=1;entryX=0.5;entryY=0;entryDx=0;entryDy=0;" edge="1" parent="1" source="MZUq7S5t8qdFrX7I3EnC-10" target="MZUq7S5t8qdFrX7I3EnC-13">
          <mxGeometry relative="1" as="geometry" />
        </mxCell>
        <mxCell id="MZUq7S5t8qdFrX7I3EnC-22" style="edgeStyle=orthogonalEdgeStyle;rounded=0;orthogonalLoop=1;jettySize=auto;html=1;entryX=0.5;entryY=0;entryDx=0;entryDy=0;" edge="1" parent="1" source="MZUq7S5t8qdFrX7I3EnC-10" target="MZUq7S5t8qdFrX7I3EnC-14">
          <mxGeometry relative="1" as="geometry" />
        </mxCell>
        <mxCell id="MZUq7S5t8qdFrX7I3EnC-23" style="edgeStyle=orthogonalEdgeStyle;rounded=0;orthogonalLoop=1;jettySize=auto;html=1;entryX=0.5;entryY=0;entryDx=0;entryDy=0;" edge="1" parent="1" source="MZUq7S5t8qdFrX7I3EnC-10" target="MZUq7S5t8qdFrX7I3EnC-16">
          <mxGeometry relative="1" as="geometry" />
        </mxCell>
        <mxCell id="MZUq7S5t8qdFrX7I3EnC-24" style="edgeStyle=orthogonalEdgeStyle;rounded=0;orthogonalLoop=1;jettySize=auto;html=1;entryX=0.5;entryY=0;entryDx=0;entryDy=0;" edge="1" parent="1" source="MZUq7S5t8qdFrX7I3EnC-10" target="MZUq7S5t8qdFrX7I3EnC-15">
          <mxGeometry relative="1" as="geometry" />
        </mxCell>
        <mxCell id="MZUq7S5t8qdFrX7I3EnC-25" style="edgeStyle=orthogonalEdgeStyle;rounded=0;orthogonalLoop=1;jettySize=auto;html=1;entryX=0.5;entryY=0;entryDx=0;entryDy=0;" edge="1" parent="1" source="MZUq7S5t8qdFrX7I3EnC-10" target="MZUq7S5t8qdFrX7I3EnC-18">
          <mxGeometry relative="1" as="geometry" />
        </mxCell>
        <mxCell id="MZUq7S5t8qdFrX7I3EnC-26" style="edgeStyle=orthogonalEdgeStyle;rounded=0;orthogonalLoop=1;jettySize=auto;html=1;entryX=0.5;entryY=0;entryDx=0;entryDy=0;" edge="1" parent="1" source="MZUq7S5t8qdFrX7I3EnC-10" target="MZUq7S5t8qdFrX7I3EnC-19">
          <mxGeometry relative="1" as="geometry" />
        </mxCell>
        <mxCell id="MZUq7S5t8qdFrX7I3EnC-10" value="Analysis" style="rounded=1;whiteSpace=wrap;html=1;" vertex="1" parent="1">
          <mxGeometry x="390" y="380" width="120" height="60" as="geometry" />
        </mxCell>
        <mxCell id="MZUq7S5t8qdFrX7I3EnC-30" style="edgeStyle=orthogonalEdgeStyle;rounded=0;orthogonalLoop=1;jettySize=auto;html=1;entryX=0;entryY=0.5;entryDx=0;entryDy=0;" edge="1" parent="1" source="MZUq7S5t8qdFrX7I3EnC-12" target="MZUq7S5t8qdFrX7I3EnC-29">
          <mxGeometry relative="1" as="geometry">
            <Array as="points">
              <mxPoint x="-35" y="650" />
            </Array>
          </mxGeometry>
        </mxCell>
        <mxCell id="MZUq7S5t8qdFrX7I3EnC-12" value="Response Time" style="rounded=0;whiteSpace=wrap;html=1;" vertex="1" parent="1">
          <mxGeometry x="-95" y="490" width="120" height="60" as="geometry" />
        </mxCell>
        <mxCell id="MZUq7S5t8qdFrX7I3EnC-31" style="edgeStyle=orthogonalEdgeStyle;rounded=0;orthogonalLoop=1;jettySize=auto;html=1;" edge="1" parent="1" source="MZUq7S5t8qdFrX7I3EnC-13">
          <mxGeometry relative="1" as="geometry">
            <mxPoint x="390" y="650" as="targetPoint" />
            <Array as="points">
              <mxPoint x="125" y="650" />
            </Array>
          </mxGeometry>
        </mxCell>
        <mxCell id="MZUq7S5t8qdFrX7I3EnC-13" value="Throughput" style="rounded=0;whiteSpace=wrap;html=1;" vertex="1" parent="1">
          <mxGeometry x="65" y="490" width="120" height="60" as="geometry" />
        </mxCell>
        <mxCell id="MZUq7S5t8qdFrX7I3EnC-32" style="edgeStyle=orthogonalEdgeStyle;rounded=0;orthogonalLoop=1;jettySize=auto;html=1;entryX=0;entryY=0.5;entryDx=0;entryDy=0;" edge="1" parent="1" source="MZUq7S5t8qdFrX7I3EnC-14" target="MZUq7S5t8qdFrX7I3EnC-29">
          <mxGeometry relative="1" as="geometry">
            <Array as="points">
              <mxPoint x="280" y="650" />
            </Array>
          </mxGeometry>
        </mxCell>
        <mxCell id="MZUq7S5t8qdFrX7I3EnC-14" value="Server Utilisation" style="rounded=0;whiteSpace=wrap;html=1;" vertex="1" parent="1">
          <mxGeometry x="225" y="490" width="120" height="60" as="geometry" />
        </mxCell>
        <mxCell id="MZUq7S5t8qdFrX7I3EnC-33" style="edgeStyle=orthogonalEdgeStyle;rounded=0;orthogonalLoop=1;jettySize=auto;html=1;entryX=0.5;entryY=0;entryDx=0;entryDy=0;" edge="1" parent="1" source="MZUq7S5t8qdFrX7I3EnC-15" target="MZUq7S5t8qdFrX7I3EnC-29">
          <mxGeometry relative="1" as="geometry" />
        </mxCell>
        <mxCell id="MZUq7S5t8qdFrX7I3EnC-15" value="Load Imbalance" style="rounded=0;whiteSpace=wrap;html=1;" vertex="1" parent="1">
          <mxGeometry x="390" y="490" width="120" height="60" as="geometry" />
        </mxCell>
        <mxCell id="MZUq7S5t8qdFrX7I3EnC-34" style="edgeStyle=orthogonalEdgeStyle;rounded=0;orthogonalLoop=1;jettySize=auto;html=1;entryX=1;entryY=0.5;entryDx=0;entryDy=0;" edge="1" parent="1" source="MZUq7S5t8qdFrX7I3EnC-16" target="MZUq7S5t8qdFrX7I3EnC-29">
          <mxGeometry relative="1" as="geometry">
            <Array as="points">
              <mxPoint x="615" y="650" />
            </Array>
          </mxGeometry>
        </mxCell>
        <mxCell id="MZUq7S5t8qdFrX7I3EnC-16" value="Scalability" style="rounded=0;whiteSpace=wrap;html=1;" vertex="1" parent="1">
          <mxGeometry x="555" y="490" width="120" height="60" as="geometry" />
        </mxCell>
        <mxCell id="MZUq7S5t8qdFrX7I3EnC-35" style="edgeStyle=orthogonalEdgeStyle;rounded=0;orthogonalLoop=1;jettySize=auto;html=1;entryX=1;entryY=0.5;entryDx=0;entryDy=0;" edge="1" parent="1" source="MZUq7S5t8qdFrX7I3EnC-18" target="MZUq7S5t8qdFrX7I3EnC-29">
          <mxGeometry relative="1" as="geometry">
            <Array as="points">
              <mxPoint x="775" y="650" />
            </Array>
          </mxGeometry>
        </mxCell>
        <mxCell id="MZUq7S5t8qdFrX7I3EnC-18" value="Latency" style="rounded=0;whiteSpace=wrap;html=1;" vertex="1" parent="1">
          <mxGeometry x="715" y="490" width="120" height="60" as="geometry" />
        </mxCell>
        <mxCell id="MZUq7S5t8qdFrX7I3EnC-36" style="edgeStyle=orthogonalEdgeStyle;rounded=0;orthogonalLoop=1;jettySize=auto;html=1;entryX=1;entryY=0.5;entryDx=0;entryDy=0;" edge="1" parent="1" source="MZUq7S5t8qdFrX7I3EnC-19" target="MZUq7S5t8qdFrX7I3EnC-29">
          <mxGeometry relative="1" as="geometry">
            <Array as="points">
              <mxPoint x="935" y="650" />
            </Array>
          </mxGeometry>
        </mxCell>
        <mxCell id="MZUq7S5t8qdFrX7I3EnC-19" value="Cost" style="rounded=0;whiteSpace=wrap;html=1;" vertex="1" parent="1">
          <mxGeometry x="875" y="490" width="120" height="60" as="geometry" />
        </mxCell>
        <mxCell id="MZUq7S5t8qdFrX7I3EnC-27" value="Request" style="text;html=1;align=center;verticalAlign=middle;whiteSpace=wrap;rounded=0;" vertex="1" parent="1">
          <mxGeometry x="125" y="320" width="60" height="30" as="geometry" />
        </mxCell>
        <mxCell id="MZUq7S5t8qdFrX7I3EnC-28" value="Response" style="text;html=1;align=center;verticalAlign=middle;whiteSpace=wrap;rounded=0;" vertex="1" parent="1">
          <mxGeometry x="320" y="230" width="60" height="30" as="geometry" />
        </mxCell>
        <mxCell id="MZUq7S5t8qdFrX7I3EnC-29" value="Conclusion" style="rounded=1;whiteSpace=wrap;html=1;" vertex="1" parent="1">
          <mxGeometry x="390" y="620" width="120" height="60" as="geometry" />
        </mxCell>
        <mxCell id="MZUq7S5t8qdFrX7I3EnC-38" value="Table" style="shape=table;startSize=30;container=1;collapsible=0;childLayout=tableLayout;strokeColor=default;fontSize=16;" vertex="1" parent="1">
          <mxGeometry x="100" y="730" width="180" height="150" as="geometry" />
        </mxCell>
        <mxCell id="MZUq7S5t8qdFrX7I3EnC-39" value="" style="shape=tableRow;horizontal=0;startSize=0;swimlaneHead=0;swimlaneBody=0;strokeColor=inherit;top=0;left=0;bottom=0;right=0;collapsible=0;dropTarget=0;fillColor=none;points=[[0,0.5],[1,0.5]];portConstraint=eastwest;fontSize=16;" vertex="1" parent="MZUq7S5t8qdFrX7I3EnC-38">
          <mxGeometry y="30" width="180" height="40" as="geometry" />
        </mxCell>
        <mxCell id="MZUq7S5t8qdFrX7I3EnC-40" value="" style="shape=partialRectangle;html=1;whiteSpace=wrap;connectable=0;strokeColor=inherit;overflow=hidden;fillColor=none;top=0;left=0;bottom=0;right=0;pointerEvents=1;fontSize=16;" vertex="1" parent="MZUq7S5t8qdFrX7I3EnC-39">
          <mxGeometry width="60" height="40" as="geometry">
            <mxRectangle width="60" height="40" as="alternateBounds" />
          </mxGeometry>
        </mxCell>
        <mxCell id="MZUq7S5t8qdFrX7I3EnC-41" value="" style="shape=partialRectangle;html=1;whiteSpace=wrap;connectable=0;strokeColor=inherit;overflow=hidden;fillColor=none;top=0;left=0;bottom=0;right=0;pointerEvents=1;fontSize=16;" vertex="1" parent="MZUq7S5t8qdFrX7I3EnC-39">
          <mxGeometry x="60" width="60" height="40" as="geometry">
            <mxRectangle width="60" height="40" as="alternateBounds" />
          </mxGeometry>
        </mxCell>
        <mxCell id="MZUq7S5t8qdFrX7I3EnC-42" value="" style="shape=partialRectangle;html=1;whiteSpace=wrap;connectable=0;strokeColor=inherit;overflow=hidden;fillColor=none;top=0;left=0;bottom=0;right=0;pointerEvents=1;fontSize=16;" vertex="1" parent="MZUq7S5t8qdFrX7I3EnC-39">
          <mxGeometry x="120" width="60" height="40" as="geometry">
            <mxRectangle width="60" height="40" as="alternateBounds" />
          </mxGeometry>
        </mxCell>
        <mxCell id="MZUq7S5t8qdFrX7I3EnC-43" value="" style="shape=tableRow;horizontal=0;startSize=0;swimlaneHead=0;swimlaneBody=0;strokeColor=inherit;top=0;left=0;bottom=0;right=0;collapsible=0;dropTarget=0;fillColor=none;points=[[0,0.5],[1,0.5]];portConstraint=eastwest;fontSize=16;" vertex="1" parent="MZUq7S5t8qdFrX7I3EnC-38">
          <mxGeometry y="70" width="180" height="40" as="geometry" />
        </mxCell>
        <mxCell id="MZUq7S5t8qdFrX7I3EnC-44" value="" style="shape=partialRectangle;html=1;whiteSpace=wrap;connectable=0;strokeColor=inherit;overflow=hidden;fillColor=none;top=0;left=0;bottom=0;right=0;pointerEvents=1;fontSize=16;" vertex="1" parent="MZUq7S5t8qdFrX7I3EnC-43">
          <mxGeometry width="60" height="40" as="geometry">
            <mxRectangle width="60" height="40" as="alternateBounds" />
          </mxGeometry>
        </mxCell>
        <mxCell id="MZUq7S5t8qdFrX7I3EnC-45" value="" style="shape=partialRectangle;html=1;whiteSpace=wrap;connectable=0;strokeColor=inherit;overflow=hidden;fillColor=none;top=0;left=0;bottom=0;right=0;pointerEvents=1;fontSize=16;" vertex="1" parent="MZUq7S5t8qdFrX7I3EnC-43">
          <mxGeometry x="60" width="60" height="40" as="geometry">
            <mxRectangle width="60" height="40" as="alternateBounds" />
          </mxGeometry>
        </mxCell>
        <mxCell id="MZUq7S5t8qdFrX7I3EnC-46" value="" style="shape=partialRectangle;html=1;whiteSpace=wrap;connectable=0;strokeColor=inherit;overflow=hidden;fillColor=none;top=0;left=0;bottom=0;right=0;pointerEvents=1;fontSize=16;" vertex="1" parent="MZUq7S5t8qdFrX7I3EnC-43">
          <mxGeometry x="120" width="60" height="40" as="geometry">
            <mxRectangle width="60" height="40" as="alternateBounds" />
          </mxGeometry>
        </mxCell>
        <mxCell id="MZUq7S5t8qdFrX7I3EnC-47" value="" style="shape=tableRow;horizontal=0;startSize=0;swimlaneHead=0;swimlaneBody=0;strokeColor=inherit;top=0;left=0;bottom=0;right=0;collapsible=0;dropTarget=0;fillColor=none;points=[[0,0.5],[1,0.5]];portConstraint=eastwest;fontSize=16;" vertex="1" parent="MZUq7S5t8qdFrX7I3EnC-38">
          <mxGeometry y="110" width="180" height="40" as="geometry" />
        </mxCell>
        <mxCell id="MZUq7S5t8qdFrX7I3EnC-48" value="" style="shape=partialRectangle;html=1;whiteSpace=wrap;connectable=0;strokeColor=inherit;overflow=hidden;fillColor=none;top=0;left=0;bottom=0;right=0;pointerEvents=1;fontSize=16;" vertex="1" parent="MZUq7S5t8qdFrX7I3EnC-47">
          <mxGeometry width="60" height="40" as="geometry">
            <mxRectangle width="60" height="40" as="alternateBounds" />
          </mxGeometry>
        </mxCell>
        <mxCell id="MZUq7S5t8qdFrX7I3EnC-49" value="" style="shape=partialRectangle;html=1;whiteSpace=wrap;connectable=0;strokeColor=inherit;overflow=hidden;fillColor=none;top=0;left=0;bottom=0;right=0;pointerEvents=1;fontSize=16;" vertex="1" parent="MZUq7S5t8qdFrX7I3EnC-47">
          <mxGeometry x="60" width="60" height="40" as="geometry">
            <mxRectangle width="60" height="40" as="alternateBounds" />
          </mxGeometry>
        </mxCell>
        <mxCell id="MZUq7S5t8qdFrX7I3EnC-50" value="" style="shape=partialRectangle;html=1;whiteSpace=wrap;connectable=0;strokeColor=inherit;overflow=hidden;fillColor=none;top=0;left=0;bottom=0;right=0;pointerEvents=1;fontSize=16;" vertex="1" parent="MZUq7S5t8qdFrX7I3EnC-47">
          <mxGeometry x="120" width="60" height="40" as="geometry">
            <mxRectangle width="60" height="40" as="alternateBounds" />
          </mxGeometry>
        </mxCell>
      </root>
    </mxGraphModel>
  </diagram>
</mxfile>
